<svg xmlns="http://www.w3.org/2000/svg" xmlns:xlink="http://www.w3.org/1999/xlink" width="40" height="62" viewBox="0 0 40 62">
  <defs>
    <style>
      .cls-1 {
        fill: none;
      }

      .cls-2 {
        clip-path: url(#clip-path);
      }

      .cls-3 {
        fill: #ea847c;
        fill-rule: evenodd;
      }

      .cls-4 {
        fill: #f58e81;
        font-size: 12px;
        font-family: Gibson-SemiBold, Gibson;
        font-weight: 600;
      }
    </style>
    <clipPath id="clip-path">
      <rect class="cls-1" width="40" height="40"/>
    </clipPath>
  </defs>
  <g id="Group_1617" data-name="Group 1617" transform="translate(-386 223)">
    <g id="Calendar" class="cls-2" transform="translate(386 -223)">
      <rect id="Rectangle_557" data-name="Rectangle 557" class="cls-1" width="16" height="16"/>
      <path id="Path_149" data-name="Path 149" class="cls-3" d="M5,12.5V35H35V12.5ZM32.5,5h5A2.362,2.362,0,0,1,40,7.5v30A2.362,2.362,0,0,1,37.5,40H2.5A2.362,2.362,0,0,1,0,37.5V7.5A2.362,2.362,0,0,1,2.5,5h5V2.5A2.362,2.362,0,0,1,10,0a2.362,2.362,0,0,1,2.5,2.5V5h15V2.5a2.5,2.5,0,0,1,5,0ZM30,30H25V25h5Zm-7.5,0h-5V25h5ZM30,22.5H25v-5h5Zm-7.5,0h-5v-5h5ZM15,30H10V25h5Z"/>
    </g>
    <text id="Skema" class="cls-4" transform="translate(406 -163)"><tspan x="-18.456" y="0">Skema</tspan></text>
  </g>
</svg>
