<svg xmlns="http://www.w3.org/2000/svg" width="30" height="30" viewBox="0 0 30 30">
  <defs>
    <style>
      .cls-1, .cls-3 {
        fill: none;
      }

      .cls-1 {
        stroke: #f58e81;
        stroke-linejoin: round;
        stroke-width: 3px;
      }

      .cls-2 {
        stroke: none;
      }
    </style>
  </defs>
  <g id="Rectangle_1482" data-name="Rectangle 1482" class="cls-1">
    <path class="cls-2" d="M12,0h6A12,12,0,0,1,30,12V28a2,2,0,0,1-2,2H12A12,12,0,0,1,0,18V12A12,12,0,0,1,12,0Z"/>
    <path class="cls-3" d="M12,1.5h6A10.5,10.5,0,0,1,28.5,12V28a.5.5,0,0,1-.5.5H12A10.5,10.5,0,0,1,1.5,18V12A10.5,10.5,0,0,1,12,1.5Z"/>
  </g>
</svg>
